#!OML:ASF H:\Pregnant\Project 1\Capture day 1\Session 1\femalepreg.ASF
:FULLY-SPECIFIED
:DEGREES
429
root 12.1678 7.02804 33.6426 -155.624 13.1858 189.34
lowerback 42.4124 7.9157 -12.8621
upperback 7.89733 7.13144 1.61254
thorax -12.2209 4.48824 4.79379
lowerneck -29.2987 4.85716 5.59302
upperneck 5.04573 5.35371 -0.774006
head 6.15872 2.98683 -0.385781
rclavicle 0 1.07344e-014
rhumerus 17.8675 15.5726 -87.6419
rradius 23.7726
rwrist 20.7476
rhand -65.1214 118.798
rfingers 7.12502
rthumb -37.0125 144.859
lclavicle 0 1.07344e-014
lhumerus 34.1098 -15.363 73.5079
lradius 24.3455
lwrist 14.9011
lhand -51.1874 -89.8062
lfingers 7.12502
lthumb -23.7283 -61.251
rfemur -79.558 -35.6634 19.0199
rtibia 144.033
rfoot -26.3381 42.7014
rtoes 5.62219
lfemur -185.205 -60.1614 -81.0594
ltibia 213.541
lfoot -246.399 -92.6247
ltoes 15.8315
430
root 12.1532 7.04551 33.5872 -155.655 13.3229 189.646
lowerback 42.642 8.09494 -12.8729
upperback 7.84519 7.31362 1.61403
thorax -12.3763 4.57283 4.68787
lowerneck -29.4186 4.85927 5.57058
upperneck 5.08057 5.36632 -0.832791
head 6.18817 2.98745 -0.397373
rclavicle -3.33958e-014 -1.23246e-014
rhumerus 17.5559 15.4879 -87.6514
rradius 23.7108
rwrist 20.6954
rhand -65.0266 120.084
rfingers 7.12502
rthumb -36.9228 146.169
lclavicle -3.33958e-014 -1.23246e-014
lhumerus 33.8665 -15.4964 73.7306
lradius 24.3393
lwrist 14.7063
lhand -51.1496 -269.674
lfingers 7.12502
lthumb -23.6921 -61.7658
rfemur -78.8581 -34.5128 19.0029
rtibia 143.653
rfoot -26.264 42.0374
rtoes 5.14699
lfemur -185.411 -59.7255 -81.1519
ltibia 213.796
lfoot -249.62 -92.4544
ltoes 14.9698
431
root 12.1418 7.06525 33.5322 -155.671 13.5483 189.982
lowerback 42.8337 8.35123 -12.9889
upperback 7.79107 7.54761 1.63103
thorax -12.5378 4.68085 4.62561
lowerneck -29.5077 4.86033 5.53902
upperneck 5.091 5.38334 -0.890327
head 6.20516 2.99019 -0.407549
rclavicle 1.35174e-014 -2.66371e-014
rhumerus 17.2222 15.3842 -87.6699
rradius 23.6618
rwrist 20.6827
rhand -64.9301 121.294
rfingers 7.12502
rthumb -36.8315 147.401
lclavicle 1.35174e-014 -2.66371e-014
lhumerus 33.6182 -15.635 73.9542
lradius 24.3262
lwrist 14.5752
lhand -51.0643 -269.088
lfingers 7.12502
lthumb -23.6103 -62.342
rfemur -78.2059 -33.2752 19.0752
rtibia 143.251
rfoot -26.1412 41.3512
rtoes 4.70873
lfemur -185.366 -59.2436 -81.4896
ltibia 214.171
lfoot -255.859 -93.1431
ltoes 15.6348
432
root 12.132 7.08529 33.4778 -155.642 13.8029 190.315
lowerback 42.953 8.63331 -13.1642
upperback 7.74284 7.79444 1.65326
thorax -12.6777 4.79369 4.59589
lowerneck -29.5958 4.85872 5.49977
upperneck 5.08218 5.40106 -0.940979
head 6.21517 2.99446 -0.414417
rclavicle -1.90833e-014 3.45885e-014
rhumerus 16.911 15.2773 -87.6789
rradius 23.6068
rwrist 20.6858
rhand -64.8431 122.488
rfingers 7.12502
rthumb -36.7492 148.617
lclavicle -1.90833e-014 3.45885e-014
lhumerus 33.386 -15.7756 74.1671
lradius 24.3094
lwrist 14.5029
lhand -50.9273 -268.442
lfingers 7.12502
lthumb -23.4789 -62.9709
rfemur -77.6509 -32.0167 19.197
rtibia 142.854
rfoot -25.9559 40.7098
rtoes 4.32867
lfemur -184.917 -58.8099 -82.2706
ltibia 214.62
lfoot -260.793 -94.4448
ltoes 17.0824
433
root 12.1224 7.10218 33.4259 -155.474 14.0311 190.614
lowerback 42.8853 8.88407 -13.3538
upperback 7.69975 8.01159 1.67106
thorax -12.756 4.88895 4.59822
lowerneck -29.6842 4.85527 5.4569
upperneck 5.05924 5.41952 -0.994863
head 6.22049 2.99916 -0.421887
rclavicle -4.45278e-014 0
rhumerus 16.6191 15.1626 -87.6738
rradius 23.5503
rwrist 20.7102
rhand -64.7567 123.483
rfingers 7.12502
rthumb -36.6674 149.633
lclavicle -4.45278e-014 0
lhumerus 33.1689 -15.9115 74.3854
lradius 24.2851
lwrist 14.472
lhand -50.7413 -267.751
lfingers 7.12502
lthumb -23.3004 -63.6388
rfemur -77.3697 -30.8032 19.3886
rtibia 142.518
rfoot -25.7002 40.1408
rtoes 3.99385
lfemur -184.201 -58.5583 -83.3179
ltibia 215.073
lfoot -263.484 -96.1152
ltoes 18.7656
434
root 12.1137 7.11603 33.3755 -155.166 14.2447 190.874
lowerback 42.6084 9.11018 -13.5734
upperback 7.67029 8.20677 1.68142
thorax -12.7575 4.97053 4.63654
lowerneck -29.7915 4.84949 5.41977
upperneck 5.03702 5.43432 -1.0623
head 6.22904 3.00122 -0.434861
rclavicle 6.75868e-014 -2.82274e-014
rhumerus 16.3519 15.0111 -87.6645
rradius 23.493
rwrist 20.7749
rhand -64.6769 124.424
rfingers 7.12502
rthumb -36.5919 150.593
lclavicle 6.75868e-014 -2.82274e-014
lhumerus 32.9754 -16.0425 74.6061
lradius 24.2764
lwrist 14.424
lhand -50.5708 -267.106
lfingers 7.12502
lthumb -23.1369 -64.2637
rfemur -77.3542 -29.6244 19.6492
rtibia 142.242
rfoot -25.5223 39.5483
rtoes 3.36083
lfemur -183.016 -58.4944 -84.92
ltibia 215.572
lfoot -265.459 -98.312
ltoes 21.0629
435
root 12.1053 7.12652 33.327 -154.713 14.4149 191.078
lowerback 42.1303 9.28905 -13.8012
upperback 7.64852 8.36091 1.67878
thorax -12.6852 5.02992 4.70436
lowerneck -29.9001 4.83981 5.38405
upperneck 5.00166 5.44539 -1.13207
head 6.23332 3.00186 -0.449467
rclavicle 2.62396e-014 -7.15625e-015
rhumerus 16.109 14.8273 -87.6513
rradius 23.4305
rwrist 20.8631
rhand -64.5978 125.19
rfingers 7.12502
rthumb -36.517 151.377
lclavicle 2.62396e-014 -7.15625e-015
lhumerus 32.7985 -16.1451 74.8536
lradius 24.2778
lwrist 14.2938
lhand -50.4394 -266.557
lfingers 7.12502
lthumb -23.0108 -64.7967
rfemur -77.5984 -28.5094 19.946
rtibia 142.034
rfoot -25.453 38.9374
rtoes 2.34803
lfemur -181.489 -58.6208 -86.9324
ltibia 216.083
lfoot -266.806 -100.787
ltoes 23.5433
436
root 12.0978 7.13442 33.28 -154.129 14.5476 191.228
lowerback 41.4665 9.42736 -14.047
upperback 7.63252 8.47859 1.66354
thorax -12.5445 5.06978 4.80405
lowerneck -29.9973 4.8214 5.34631
upperneck 4.94996 5.44724 -1.19935
head 6.23019 2.9987 -0.464634
rclavicle 3.18055e-014 2.06736e-014
rhumerus 15.8882 14.6035 -87.6386
rradius 23.3648
rwrist 20.9779
rhand -64.5214 125.891
rfingers 7.12502
rthumb -36.4448 152.097
lclavicle 3.18055e-014 2.06736e-014
lhumerus 32.634 -16.2208 75.1295
lradius 24.2965
lwrist 14.0621
lhand -50.3698 -266.106
lfingers 7.12502
lthumb -22.944 -65.2392
rfemur -78.0666 -27.4506 20.2486
rtibia 141.885
rfoot -25.3965 38.3685
rtoes 1.23602
lfemur -179.601 -58.8949 -89.3708
ltibia 216.615
lfoot -267.839 -103.586
ltoes 26.3961
437
root 12.0905 7.1406 33.2345 -153.455 14.6297 191.323
lowerback 40.6854 9.52425 -14.2949
upperback 7.61492 8.55952 1.64023
thorax -12.361 5.09105 4.92728
lowerneck -30.0802 4.79428 5.30045
upperneck 4.89371 5.44028 -1.25915
head 6.22296 2.99176 -0.477643
rclavicle 1.74931e-014 2.06736e-014
rhumerus 15.6746 14.3375 -87.6287
rradius 23.3029
rwrist 21.1179
rhand -64.4463 126.504
rfingers 7.12502
rthumb -36.3736 152.727
lclavicle 1.74931e-014 2.06736e-014
lhumerus 32.4781 -16.2798 75.4316
lradius 24.3275
lwrist 13.7475
lhand -50.3614 -265.738
lfingers 7.12502
lthumb -22.9359 -65.6066
rfemur -78.7017 -25.6387 20.5827
rtibia 141.777
rfoot -25.1754 37.4674
rtoes 0.160409
lfemur -177.406 -59.2559 -92.1628
ltibia 217.149
lfoot -268.742 -106.523
ltoes 29.2722
